# This file uses centimeters as units for non-parametric coordinates.

mtllib Wall_L.mtl
g default
v 5.000000 0.000000 -5.000000
v 0.000000 0.000000 -5.000000
v 5.000000 7.012042 -5.000000
v 0.000000 7.012042 -5.000000
v 5.000000 7.012042 -4.000000
v 1.000000 7.012042 -4.000000
v 5.000000 0.000000 -4.000000
v 1.000000 0.000000 -4.000000
v 1.000000 0.000000 0.000000
v 1.000000 7.012042 0.000000
v 0.000000 7.012042 0.000000
v 0.000000 0.000000 0.000000
v 5.000000 7.012042 -6.000000
v -1.000000 7.012042 -6.000000
v 5.000000 7.012042 -3.000000
v 2.000001 7.012042 -3.000001
v 2.000000 7.012042 0.000000
v -1.000000 7.012042 0.000000
v 5.000001 7.944048 -5.999999
v -0.999999 7.944048 -5.999999
v 5.000001 7.944048 -2.999999
v 2.000002 7.944048 -3.000000
v 2.000001 7.944048 0.000001
v -0.999999 7.944048 0.000001
vt 0.501452 0.730799
vt 0.396426 0.730615
vt 0.396685 0.583326
vt 0.501711 0.583511
vt 0.582977 0.553261
vt 0.666993 0.554143
vt 0.665447 0.701424
vt 0.581430 0.700542
vt 0.749462 0.702306
vt 0.751009 0.555026
vt 0.291659 0.583141
vt 0.291401 0.730430
vt 0.072663 0.711380
vt 0.177689 0.711609
vt 0.198649 0.732660
vt 0.072618 0.732385
vt 0.319188 0.933885
vt 0.319188 0.849863
vt 0.340193 0.849863
vt 0.340193 0.912880
vt 0.403210 0.933885
vt 0.403210 0.912880
vt 0.177919 0.606583
vt 0.198924 0.606628
vt 0.198606 0.752236
vt 0.072575 0.751961
vt 0.611662 0.929286
vt 0.674673 0.929983
vt 0.674457 0.949559
vt 0.611445 0.948862
vt 0.548650 0.928588
vt 0.548433 0.948164
vt 0.324680 0.732935
vt 0.324637 0.752511
vt 0.928023 0.606869
vt 0.928023 0.732900
vt 0.865006 0.669884
vt 0.865006 0.606869
vt 0.801991 0.669884
vt 0.801991 0.732900
vn 0.000000 0.000000 -1.000000
vn 0.000000 0.000000 -1.000000
vn 0.000000 0.000000 -1.000000
vn 0.000000 0.000000 -1.000000
vn 0.000000 0.000000 1.000000
vn 0.000000 0.000000 1.000000
vn 0.000000 0.000000 1.000000
vn 0.000000 0.000000 1.000000
vn 1.000000 0.000000 0.000000
vn 1.000000 0.000000 0.000000
vn 1.000000 0.000000 0.000000
vn 1.000000 0.000000 0.000000
vn -1.000000 0.000000 -0.000000
vn -1.000000 0.000000 -0.000000
vn -1.000000 0.000000 -0.000000
vn -1.000000 0.000000 -0.000000
vn 0.000000 -1.000000 0.000001
vn 0.000000 -1.000000 0.000000
vn 0.000000 -1.000000 0.000000
vn 0.000000 -1.000000 0.000001
vn 0.000000 -1.000000 0.000000
vn 0.000000 -1.000000 0.000000
vn 0.000000 -1.000000 0.000000
vn 0.000000 -1.000000 0.000000
vn 0.000000 -1.000000 0.000000
vn 0.000000 -1.000000 0.000000
vn 0.000000 -1.000000 0.000000
vn 0.000000 -1.000000 0.000000
vn 0.000000 -1.000000 0.000000
vn 0.000000 -1.000000 0.000000
vn 0.000000 -1.000000 0.000000
vn 0.000000 -1.000000 0.000000
vn 0.000000 0.000000 -1.000000
vn 0.000000 0.000000 -1.000000
vn 0.000000 0.000000 -1.000000
vn 0.000000 0.000000 -1.000000
vn 0.000000 0.000000 1.000000
vn 0.000000 0.000000 1.000000
vn 0.000000 0.000000 1.000000
vn 0.000000 0.000000 1.000000
vn 1.000000 0.000000 0.000000
vn 1.000000 0.000000 0.000000
vn 1.000000 0.000000 0.000000
vn 1.000000 0.000000 0.000000
vn -1.000000 0.000000 -0.000000
vn -1.000000 0.000000 -0.000000
vn -1.000000 0.000000 -0.000000
vn -1.000000 0.000000 -0.000000
vn 0.000000 1.000000 0.000000
vn 0.000000 1.000000 0.000000
vn 0.000000 1.000000 0.000000
vn 0.000000 1.000000 0.000000
vn 0.000000 1.000000 0.000000
vn 0.000000 1.000000 0.000000
vn 0.000000 1.000000 0.000000
vn 0.000000 1.000000 0.000000
s off
g Wall_L
usemtl lambert2SG
f 1/1/1 2/2/2 4/3/3 3/4/4
f 5/5/5 6/6/6 8/7/7 7/8/8
f 9/9/9 8/7/10 6/6/11 10/10/12
f 11/11/13 4/3/14 2/2/15 12/12/16
f 3/13/17 4/14/18 14/15/19 13/16/20
f 6/17/21 5/18/22 15/19/23 16/20/24
f 10/21/25 6/17/26 16/20/27 17/22/28
f 4/14/29 11/23/30 18/24/31 14/15/32
f 13/16/33 14/15/34 20/25/35 19/26/36
f 16/27/37 15/28/38 21/29/39 22/30/40
f 17/31/41 16/27/42 22/30/43 23/32/44
f 14/15/45 18/33/46 24/34/47 20/25/48
f 19/35/49 20/36/50 22/37/51 21/38/52
f 23/39/53 22/37/54 20/36/55 24/40/56
