# This file uses centimeters as units for non-parametric coordinates.

mtllib Wall1.mtl
g default
v 0.000000 0.000000 -5.000000
v 0.000000 0.000000 0.000000
v 0.000000 7.012042 -5.000000
v 0.000000 7.012042 0.000000
v 1.000000 7.012042 -5.000000
v 1.000000 7.012042 0.000000
v 1.000000 0.000000 -5.000000
v 1.000000 0.000000 0.000000
v -1.000000 7.012042 -5.000000
v -1.000000 7.012042 0.000000
v 2.000000 7.012042 -5.000000
v 2.000000 7.012042 0.000000
v -1.000000 7.944047 -5.000000
v -1.000000 7.944047 0.000000
v 2.000000 7.944047 -5.000000
v 2.000000 7.944047 0.000000
vt 0.543223 0.028524
vt 0.634376 0.028524
vt 0.634376 0.156357
vt 0.543223 0.156357
vt 0.543223 0.281493
vt 0.634376 0.281493
vt 0.634376 0.409327
vt 0.543223 0.409327
vt 0.634376 0.174588
vt 0.543223 0.174588
vt 0.543223 0.263263
vt 0.634376 0.263263
vt 0.634376 0.191579
vt 0.543223 0.191579
vt 0.543223 0.246271
vt 0.634376 0.246271
vt 0.543213 0.580918
vt 0.543213 0.708753
vt 0.524983 0.708753
vt 0.524983 0.580918
vt 0.506752 0.725745
vt 0.506752 0.708753
vt 0.561444 0.725745
vt 0.561444 0.708753
vn -1.000000 0.000000 0.000000
vn -1.000000 0.000000 0.000000
vn -1.000000 0.000000 0.000000
vn -1.000000 0.000000 0.000000
vn 1.000000 0.000000 0.000000
vn 1.000000 0.000000 0.000000
vn 1.000000 0.000000 0.000000
vn 1.000000 0.000000 0.000000
vn 0.000000 -1.000000 0.000000
vn 0.000000 -1.000000 0.000000
vn 0.000000 -1.000000 0.000000
vn 0.000000 -1.000000 0.000000
vn 0.000000 -1.000000 0.000000
vn 0.000000 -1.000000 0.000000
vn 0.000000 -1.000000 0.000000
vn 0.000000 -1.000000 0.000000
vn -1.000000 0.000000 0.000000
vn -1.000000 0.000000 0.000000
vn -1.000000 0.000000 0.000000
vn -1.000000 0.000000 0.000000
vn 1.000000 0.000000 0.000000
vn 1.000000 0.000000 0.000000
vn 1.000000 0.000000 0.000000
vn 1.000000 0.000000 0.000000
vn 0.000000 1.000000 0.000000
vn 0.000000 1.000000 0.000000
vn 0.000000 1.000000 0.000000
vn 0.000000 1.000000 0.000000
vn 0.000000 0.000000 -1.000000
vn 0.000000 0.000000 -1.000000
vn 0.000000 0.000000 -1.000000
vn 0.000000 0.000000 -1.000000
vn 0.000000 0.000000 -1.000000
vn 0.000000 0.000000 -1.000000
vn 0.000000 0.000000 -1.000000
vn 0.000000 0.000000 -1.000000
vn 0.000000 0.000000 -1.000000
vn 0.000000 0.000000 -1.000000
vn 0.000000 0.000000 -1.000000
vn 0.000000 0.000000 -1.000000
vn 0.000000 0.000000 -1.000000
vn 0.000000 0.000000 -1.000000
s off
g wall_1
usemtl lambert2SG
f 1/1/1 2/2/2 4/3/3 3/4/4
f 5/5/5 6/6/6 8/7/7 7/8/8
f 3/4/9 4/3/10 10/9/11 9/10/12
f 6/6/13 5/5/14 11/11/15 12/12/16
f 9/10/17 10/9/18 14/13/19 13/14/20
f 12/12/21 11/11/22 15/15/23 16/16/24
f 13/14/25 14/13/26 16/16/27 15/15/28
f 1/17/29 3/18/30 5/19/31 7/20/32
f 5/19/33 15/21/34 11/22/35
f 3/18/36 13/23/37 15/21/38 5/19/39
f 9/24/40 13/23/41 3/18/42
