# This file uses centimeters as units for non-parametric coordinates.

mtllib Wall_U.mtl
g default
v 10.000000 0.000000 0.000000
v 10.000000 0.000000 -4.999999
v 10.000000 7.012042 0.000000
v 10.000000 7.012042 -4.999999
v 9.000000 7.012042 0.000000
v 9.000000 7.012042 -4.000000
v 9.000000 0.000000 0.000000
v 9.000000 0.000000 -4.000000
v 11.000001 7.012042 0.000000
v 11.000001 7.012042 -5.999999
v 8.000000 7.012042 0.000000
v 8.000002 7.012042 -2.999999
v 11.000001 7.944048 0.000000
v 11.000001 7.944048 -5.999999
v 8.000000 7.944048 0.000000
v 8.000002 7.944048 -2.999999
v 0.000000 0.000000 0.000000
v 0.000000 0.000000 -4.999999
v 0.000000 7.012042 0.000000
v 0.000000 7.012042 -4.999999
v 1.000000 7.012042 0.000000
v 1.000000 7.012042 -4.000000
v 1.000000 0.000000 0.000000
v 1.000000 0.000000 -4.000000
v -1.000000 7.012042 0.000000
v -1.000000 7.012042 -5.999999
v 2.000000 7.012042 0.000000
v 2.000000 7.012042 -2.999999
v -1.000000 7.944048 0.000000
v -1.000000 7.944048 -5.999999
v 2.000000 7.944048 0.000000
v 2.000000 7.944048 -2.999999
vt 0.072575 0.757086
vt 0.154978 0.757074
vt 0.154995 0.867408
vt 0.072592 0.867420
vt 0.506752 0.733373
vt 0.569692 0.733363
vt 0.569709 0.843697
vt 0.506769 0.843707
vt 0.781255 0.739781
vt 0.781670 0.818455
vt 0.766019 0.834272
vt 0.765520 0.739864
vt 0.418180 0.967967
vt 0.418418 0.905027
vt 0.434153 0.905087
vt 0.433974 0.952291
vt 0.939018 0.817624
vt 0.954836 0.833276
vt 0.548433 0.957513
vt 0.642842 0.957341
vt 0.642869 0.972006
vt 0.548460 0.972178
vt 0.337496 0.940702
vt 0.384701 0.940698
vt 0.384702 0.955362
vt 0.337498 0.955367
vt 0.831662 0.956996
vt 0.831688 0.971661
vt 0.954719 0.839437
vt 0.954338 0.933846
vt 0.907324 0.886451
vt 0.907514 0.839247
vt 0.410020 0.733019
vt 0.410020 0.843353
vt 0.331345 0.843353
vt 0.331345 0.733019
vt 0.758512 0.733333
vt 0.758529 0.843668
vt 0.695589 0.843677
vt 0.695572 0.733343
vt 0.312328 0.757050
vt 0.312345 0.867384
vt 0.938603 0.738950
vt 0.954337 0.738867
vt 0.544059 0.968443
vt 0.528383 0.952648
vt 0.528562 0.905443
vt 0.544297 0.905503
vt 0.926071 0.956822
vt 0.926098 0.971488
vt 0.243086 0.940712
vt 0.243087 0.955377
vt 0.195882 0.955378
vt 0.195882 0.940712
vt 0.765901 0.838676
vt 0.813105 0.838867
vt 0.812914 0.886071
vt 0.765520 0.933085
vn 1.000000 0.000000 0.000000
vn 1.000000 0.000000 0.000000
vn 1.000000 0.000000 0.000000
vn 1.000000 0.000000 0.000000
vn -1.000000 0.000000 0.000000
vn -1.000000 0.000000 0.000000
vn -1.000000 0.000000 0.000000
vn -1.000000 0.000000 0.000000
vn 0.000000 -1.000000 0.000000
vn 0.000000 -1.000000 0.000000
vn 0.000000 -1.000000 0.000000
vn 0.000000 -1.000000 0.000000
vn 0.000000 -1.000000 0.000000
vn 0.000000 -1.000000 0.000000
vn 0.000000 -1.000000 0.000000
vn 0.000000 -1.000000 0.000000
vn 0.000000 -1.000000 0.000000
vn 0.000000 -1.000000 0.000000
vn 0.000000 -1.000000 0.000000
vn 0.000000 -1.000000 0.000000
vn 1.000000 0.000000 0.000000
vn 1.000000 0.000000 0.000000
vn 1.000000 0.000000 0.000000
vn 1.000000 0.000000 0.000000
vn -1.000000 0.000000 -0.000001
vn -1.000000 0.000000 -0.000001
vn -1.000000 0.000000 -0.000001
vn -1.000000 0.000000 -0.000001
vn 0.000000 0.000000 -1.000000
vn 0.000000 0.000000 -1.000000
vn 0.000000 0.000000 -1.000000
vn 0.000000 0.000000 -1.000000
vn 0.000000 1.000000 0.000000
vn 0.000000 1.000000 0.000000
vn 0.000000 1.000000 0.000000
vn 0.000000 1.000000 0.000000
vn -1.000000 0.000000 0.000000
vn -1.000000 0.000000 0.000000
vn -1.000000 0.000000 0.000000
vn -1.000000 0.000000 0.000000
vn 1.000000 0.000000 0.000000
vn 1.000000 0.000000 0.000000
vn 1.000000 0.000000 0.000000
vn 1.000000 0.000000 0.000000
vn 0.000000 0.000000 1.000000
vn 0.000000 0.000000 1.000000
vn 0.000000 0.000000 1.000000
vn 0.000000 0.000000 1.000000
vn 0.000000 0.000000 -1.000000
vn 0.000000 0.000000 -1.000000
vn 0.000000 0.000000 -1.000000
vn 0.000000 0.000000 -1.000000
vn 0.000000 -1.000000 0.000000
vn 0.000000 -1.000000 0.000000
vn 0.000000 -1.000000 0.000000
vn 0.000000 -1.000000 0.000000
vn 0.000000 -1.000000 0.000000
vn 0.000000 -1.000000 0.000000
vn 0.000000 -1.000000 0.000000
vn 0.000000 -1.000000 0.000000
vn 0.000000 -1.000000 0.000000
vn 0.000000 -1.000000 0.000000
vn 0.000000 -1.000000 0.000000
vn 0.000000 -1.000000 0.000000
vn -1.000000 0.000000 0.000000
vn -1.000000 0.000000 0.000000
vn -1.000000 0.000000 0.000000
vn -1.000000 0.000000 0.000000
vn 1.000000 0.000000 0.000000
vn 1.000000 0.000000 0.000000
vn 1.000000 0.000000 0.000000
vn 1.000000 0.000000 0.000000
vn 0.000000 0.000000 1.000000
vn 0.000000 0.000000 1.000000
vn 0.000000 0.000000 1.000000
vn 0.000000 0.000000 1.000000
vn 0.000000 1.000000 0.000000
vn 0.000000 1.000000 0.000000
vn 0.000000 1.000000 0.000000
vn 0.000000 1.000000 0.000000
vn 0.000000 1.000000 0.000000
vn 0.000000 1.000000 0.000000
vn 0.000000 1.000000 0.000000
vn 0.000000 1.000000 0.000000
s off
g Wall_U2
usemtl lambert2SG
f 1/1/1 2/2/2 4/3/3 3/4/4
f 5/5/5 6/6/6 8/7/7 7/8/8
f 3/9/9 4/10/10 10/11/11 9/12/12
f 6/13/13 5/14/14 11/15/15 12/16/16
f 10/11/17 4/10/18 20/17/19 26/18/20
f 9/19/21 10/20/22 14/21/23 13/22/24
f 12/23/25 11/24/26 15/25/27 16/26/28
f 14/21/29 10/20/30 26/27/31 30/28/32
f 13/29/33 14/30/34 16/31/35 15/32/36
f 17/33/37 19/34/38 20/35/39 18/36/40
f 21/37/41 23/38/42 24/39/43 22/40/44
f 6/6/45 22/40/46 24/39/47 8/7/48
f 2/2/49 18/41/50 20/42/51 4/3/52
f 19/43/53 25/44/54 26/18/55 20/17/56
f 22/45/57 28/46/58 27/47/59 21/48/60
f 12/16/61 28/46/62 22/45/63 6/13/64
f 25/49/65 29/50/66 30/28/67 26/27/68
f 28/51/69 32/52/70 31/53/71 27/54/72
f 16/26/73 32/52/74 28/51/75 12/23/76
f 29/55/77 31/56/78 32/57/79 30/58/80
f 14/30/81 30/58/82 32/57/83 16/31/84
